<svg xmlns="http://www.w3.org/2000/svg" width="206.845" height="128.242" viewBox="0 0 206.845 128.242"><defs><style>.cls-1{fill:#f4efed;}.cls-2{fill:#ff3e71;}.cls-3{fill:#232123;}</style></defs><g id="Layer_2" data-name="Layer 2"><g id="Layer_1-2" data-name="Layer 1"><rect class="cls-1" width="183.928" height="44.66"/><rect class="cls-1" y="109.887" width="168.54" height="18.356"/><rect class="cls-2" y="53.474" width="206.845" height="48.186"/><path class="cls-3" d="M21.058,36.008a3.511,3.511,0,0,1-1.168-.969A3.222,3.222,0,0,1,17.2,36.361H13.28q-3.351,0-4.871-1.344t-1.52-4.606V29.53q0-6.831,6.435-6.831h5.465V20.5a2.694,2.694,0,0,0-.838-2.116,3.6,3.6,0,0,0-2.468-.749H8.652v-3.3h6.39q3.836,0,5.664,1.674t1.829,5.377V31.954a1.1,1.1,0,0,0,.507.991,3.242,3.242,0,0,0,1.7.331v3.085H22.314A2.758,2.758,0,0,1,21.058,36.008Zm-2.622-3.57a3.17,3.17,0,0,0,.353-1.586V26H13.28a2.565,2.565,0,0,0-2.645,2.645v2.2a2.294,2.294,0,0,0,.529,1.675,2.292,2.292,0,0,0,1.675.528h3.923Q18.084,33.055,18.436,32.438Z"/><path class="cls-3" d="M33.156,33.055V17.63H29.939v-3.3h6.743v1.19a5.382,5.382,0,0,1,3.526-1.19h4.539V17.85h-4.98a2.519,2.519,0,0,0-2.116.9,3.217,3.217,0,0,0-.749,1.828V33.055h4.8v3.306H29.939V33.055Z"/><path class="cls-3" d="M54.222,34.708q-1.807-1.653-1.807-5.4V21.376q0-3.7,1.829-5.377t5.663-1.674h5.686V17.63H59.467A3.6,3.6,0,0,0,57,18.379a2.691,2.691,0,0,0-.838,2.116v9.7A2.687,2.687,0,0,0,57,32.306a3.59,3.59,0,0,0,2.468.749h6.126v3.306H59.907Q56.03,36.361,54.222,34.708Z"/><path class="cls-3" d="M76.3,5.51v9.7a5.834,5.834,0,0,1,3.305-.881h2.027q3.57,0,5.311,1.674t1.741,5.377V36.361H84.941V20.5a2.664,2.664,0,0,0-2.865-2.865H79.167a2.819,2.819,0,0,0-2.115.727,2.4,2.4,0,0,0-.749,1.565V36.361H72.556V5.51Z"/><path class="cls-3" d="M93.843,17.63v-3.3h10.225v18.73h6.523v3.306H100.322V17.63ZM104.288,5.51V9.477H100.1V5.51Z"/><path class="cls-3" d="M114.733,14.325h4.055l5.156,19,5.025-18.995h3.922l-6.347,22.036h-5.421Z"/><path class="cls-3" d="M151.776,34.686q-1.83,1.675-5.664,1.675h-1.454q-3.834,0-5.664-1.675t-1.828-5.377V21.376q0-3.7,1.828-5.377t5.664-1.674h1.454q3.834,0,5.664,1.674t1.828,5.377v7.933Q153.6,33.011,151.776,34.686Zm-2.755-16.307a3.6,3.6,0,0,0-2.468-.749h-2.336a3.6,3.6,0,0,0-2.468.749,2.694,2.694,0,0,0-.837,2.116v9.7a2.69,2.69,0,0,0,.837,2.115,3.59,3.59,0,0,0,2.468.749h2.336a3.592,3.592,0,0,0,2.468-.749,2.69,2.69,0,0,0,.837-2.115V20.5A2.694,2.694,0,0,0,149.021,18.379Z"/><path class="cls-3" d="M172.005,34.995a7.681,7.681,0,0,1-4.914,1.366h-6.567V33.055h7.007a2.788,2.788,0,0,0,1.807-.507,1.8,1.8,0,0,0,.617-1.476V28.737q0-1.984-1.9-1.984h-1.631a6.787,6.787,0,0,1-4.6-1.344,5.4,5.4,0,0,1-1.521-4.253V19.877a5.056,5.056,0,0,1,1.675-4.253,7.952,7.952,0,0,1,4.936-1.3h5.906V17.63h-6.347a2.82,2.82,0,0,0-1.762.507,1.747,1.747,0,0,0-.661,1.477V21.2a1.823,1.823,0,0,0,.594,1.5,2.332,2.332,0,0,0,1.521.484h1.5a6.385,6.385,0,0,1,4.5,1.433,5.527,5.527,0,0,1,1.542,4.253v1.983A5,5,0,0,1,172.005,34.995Z"/><path class="cls-3" d="M16.938,91.6H15.131q-3.879,0-5.686-1.652t-1.807-5.4V76.614q0-3.7,1.83-5.377t5.663-1.675h5.112V60.748h3.746V91.6H20.463V90.584A6.008,6.008,0,0,1,16.938,91.6Zm2.6-4.077a2.414,2.414,0,0,0,.7-1.652v-13H14.69a3.6,3.6,0,0,0-2.468.749,2.689,2.689,0,0,0-.837,2.115v9.7a2.687,2.687,0,0,0,.837,2.115,3.59,3.59,0,0,0,2.468.749h2.688A2.784,2.784,0,0,0,19.538,87.521Z"/><path class="cls-3" d="M29.057,72.868V69.562H39.282v18.73h6.523V91.6H35.536V72.868ZM39.5,60.748v3.966H35.316V60.748Z"/><path class="cls-3" d="M65.924,97.614q-1.785,1.476-5.576,1.476H51.181V95.785h9.608a3.835,3.835,0,0,0,2.38-.617,1.924,1.924,0,0,0,.793-1.587v-1.41a1.907,1.907,0,0,0-.793-1.609,3.943,3.943,0,0,0-2.38-.595H53.165V83.885a4.94,4.94,0,0,1-2.16-2.291,9.156,9.156,0,0,1-.705-3.879v-1.1q0-3.7,1.829-5.377t5.663-1.675h9.255v8.153a7.151,7.151,0,0,1-1.806,5.179,6.371,6.371,0,0,1-4.8,1.873H56.911v1.9h3.437q3.79,0,5.576,1.476a5.472,5.472,0,0,1,1.784,4.474v.529A5.471,5.471,0,0,1,65.924,97.614ZM62.508,80.581a3.447,3.447,0,0,0,.793-1.852V72.868h-5.95a3.591,3.591,0,0,0-2.467.749,2.69,2.69,0,0,0-.838,2.115V78.6a2.687,2.687,0,0,0,.838,2.115,3.586,3.586,0,0,0,2.467.749h3.085A2.5,2.5,0,0,0,62.508,80.581Z"/><path class="cls-3" d="M72.248,72.868V69.562H82.472v18.73H89V91.6H78.726V72.868Zm10.445-12.12v3.966H78.506V60.748Z"/><path class="cls-3" d="M100.41,90.144a5.863,5.863,0,0,1-1.19-3.835V72.868H95.033V69.562H99.22V64.273h3.746v5.289H109.4v3.306h-6.435V86.53a1.678,1.678,0,0,0,.484,1.366,2.342,2.342,0,0,0,1.5.4H109.4V91.6h-5.554A4.183,4.183,0,0,1,100.41,90.144Z"/><path class="cls-3" d="M129.034,91.246a3.526,3.526,0,0,1-1.168-.97,3.219,3.219,0,0,1-2.688,1.322h-3.922q-3.351,0-4.87-1.344t-1.521-4.606v-.881q0-6.831,6.435-6.831h5.465v-2.2a2.7,2.7,0,0,0-.837-2.115,3.6,3.6,0,0,0-2.469-.749h-6.831V69.562h6.39q3.835,0,5.664,1.675t1.829,5.377V87.191a1.1,1.1,0,0,0,.507.991,3.233,3.233,0,0,0,1.7.331V91.6H130.29A2.772,2.772,0,0,1,129.034,91.246Zm-2.622-3.571a3.167,3.167,0,0,0,.353-1.586V81.241h-5.509a2.565,2.565,0,0,0-2.645,2.644v2.2a1.9,1.9,0,0,0,2.2,2.2h3.923Q126.06,88.292,126.412,87.675Z"/><path class="cls-3" d="M144.2,90.54a4.41,4.41,0,0,1-1.124-3.349V64.053h-6.478v-3.3h10.224V86.97a1.28,1.28,0,0,0,.353,1.014,1.806,1.806,0,0,0,1.19.308h5.861V91.6h-7.4A3.7,3.7,0,0,1,144.2,90.54Z"/><path class="cls-3" d="M161.053,89.946q-1.809-1.654-1.808-5.4V76.614q0-3.791,1.631-5.421t5.421-1.631h2.071a6.135,6.135,0,0,1,4.738,1.741,7.252,7.252,0,0,1,1.609,5.09v5.73H162.992v3.3a2.69,2.69,0,0,0,.837,2.115,3.59,3.59,0,0,0,2.468.749H173.3V91.6h-6.566Q162.859,91.6,161.053,89.946Zm10-14.434a2.562,2.562,0,0,0-2.645-2.644h-2.556a2.853,2.853,0,0,0-2.225.726,3.148,3.148,0,0,0-.639,2.138v3.085h8.065Z"/><path class="cls-3" d="M193.6,90.232a7.679,7.679,0,0,1-4.914,1.366h-6.567V88.292h7.007a2.792,2.792,0,0,0,1.807-.506,1.8,1.8,0,0,0,.618-1.477V83.974q0-1.983-1.9-1.983h-1.63a6.79,6.79,0,0,1-4.606-1.345,5.4,5.4,0,0,1-1.52-4.253V75.115a5.051,5.051,0,0,1,1.675-4.253,7.948,7.948,0,0,1,4.936-1.3h5.905v3.306h-6.346a2.827,2.827,0,0,0-1.763.506,1.748,1.748,0,0,0-.661,1.477v1.586a1.818,1.818,0,0,0,.595,1.5,2.329,2.329,0,0,0,1.52.484h1.5a6.384,6.384,0,0,1,4.5,1.433,5.527,5.527,0,0,1,1.543,4.253v1.983A5,5,0,0,1,193.6,90.232Z"/><path class="cls-3" d="M7.223,116.213v.311a1.637,1.637,0,0,1,1.033-.311h.465a2.415,2.415,0,0,1,1.666.485,2.056,2.056,0,0,1,.529,1.582V120.6a2.045,2.045,0,0,1-.536,1.576,2.4,2.4,0,0,1-1.659.49H7.287v2.2H6.19v-8.653Zm.271,1.2a.7.7,0,0,0-.207.483v3.81H8.85a1.054,1.054,0,0,0,.723-.22.786.786,0,0,0,.245-.619v-2.841a.787.787,0,0,0-.245-.62,1.049,1.049,0,0,0-.723-.22H8.127A.813.813,0,0,0,7.494,117.409Z"/><path class="cls-3" d="M16.411,122.567a1.017,1.017,0,0,1-.342-.284.945.945,0,0,1-.788.387H14.132a2.132,2.132,0,0,1-1.428-.393,1.736,1.736,0,0,1-.445-1.35v-.259q0-2,1.885-2h1.6v-.645a.787.787,0,0,0-.246-.62,1.047,1.047,0,0,0-.723-.22h-2v-.969h1.872a2.4,2.4,0,0,1,1.66.492,2.048,2.048,0,0,1,.535,1.575v3.1a.323.323,0,0,0,.149.29.946.946,0,0,0,.5.1v.9h-.71A.808.808,0,0,1,16.411,122.567Zm-.769-1.046a.925.925,0,0,0,.1-.465v-1.42H14.132a.749.749,0,0,0-.775.775v.645A.558.558,0,0,0,14,121.7h1.15C15.41,121.7,15.574,121.642,15.642,121.521Z"/><path class="cls-3" d="M19.955,121.7v-4.52h-.942v-.969h1.975v.349a1.582,1.582,0,0,1,1.033-.349h1.33v1.034H21.892a.74.74,0,0,0-.62.264.946.946,0,0,0-.219.536V121.7H22.46v.968H19.013V121.7Z"/><path class="cls-3" d="M29.065,122.567a1.023,1.023,0,0,1-.341-.284.947.947,0,0,1-.789.387H26.787a2.132,2.132,0,0,1-1.428-.393,1.733,1.733,0,0,1-.445-1.35v-.259q0-2,1.885-2h1.6v-.645a.787.787,0,0,0-.245-.62,1.049,1.049,0,0,0-.723-.22h-2v-.969H27.3a2.391,2.391,0,0,1,1.659.492,2.044,2.044,0,0,1,.536,1.575v3.1a.323.323,0,0,0,.149.29.946.946,0,0,0,.5.1v.9h-.711A.814.814,0,0,1,29.065,122.567Zm-.768-1.046a.926.926,0,0,0,.1-.465v-1.42H26.787a.749.749,0,0,0-.775.775v.645a.557.557,0,0,0,.645.646h1.15Q28.194,121.7,28.3,121.521Z"/><path class="cls-3" d="M41.72,122.567a1.037,1.037,0,0,1-.342-.284.945.945,0,0,1-.788.387H39.441a2.129,2.129,0,0,1-1.427-.393,1.733,1.733,0,0,1-.445-1.35v-.259q0-2,1.885-2h1.6v-.645a.787.787,0,0,0-.245-.62,1.051,1.051,0,0,0-.723-.22h-2v-.969h1.872a2.393,2.393,0,0,1,1.66.492,2.044,2.044,0,0,1,.536,1.575v3.1a.323.323,0,0,0,.149.29.941.941,0,0,0,.5.1v.9h-.711A.811.811,0,0,1,41.72,122.567Zm-.768-1.046a.926.926,0,0,0,.1-.465v-1.42H39.441a.751.751,0,0,0-.775.775v.645a.558.558,0,0,0,.646.646h1.149C40.72,121.7,40.883,121.642,40.952,121.521Z"/><path class="cls-3" d="M45.11,122.186a2.054,2.054,0,0,1-.529-1.582V118.28a2.041,2.041,0,0,1,.536-1.575,2.391,2.391,0,0,1,1.659-.492h1.666v.969h-1.8a1.049,1.049,0,0,0-.723.22.787.787,0,0,0-.245.62v2.841a.786.786,0,0,0,.245.619,1.054,1.054,0,0,0,.723.22h1.8v.968H46.776A2.413,2.413,0,0,1,45.11,122.186Z"/><path class="cls-3" d="M52.316,122.245a1.72,1.72,0,0,1-.349-1.124v-3.939H50.741v-.969h1.226v-1.549h1.1v1.549H54.95v.969H53.065v4a.489.489,0,0,0,.142.4.677.677,0,0,0,.439.117h1.3v.968H53.323A1.225,1.225,0,0,1,52.316,122.245Z"/><path class="cls-3" d="M56.72,117.182v-.969h3V121.7h1.911v.968H58.618v-5.488Zm3.06-3.551v1.162H58.553v-1.162Z"/><path class="cls-3" d="M62.84,116.213h1.188l1.511,5.567,1.472-5.567H68.16L66.3,122.67H64.712Z"/><path class="cls-3" d="M69.374,117.182v-.969h3V121.7h1.911v.968H71.272v-5.488Zm3.061-3.551v1.162H71.208v-1.162Z"/><path class="cls-3" d="M79.621,122.27a2.252,2.252,0,0,1-1.44.4H76.257V121.7H78.31a.813.813,0,0,0,.53-.149.527.527,0,0,0,.18-.432v-.685q0-.581-.555-.581h-.477a1.988,1.988,0,0,1-1.35-.394,1.58,1.58,0,0,1-.445-1.246v-.374a1.484,1.484,0,0,1,.49-1.247,2.337,2.337,0,0,1,1.447-.381h1.73v.969H78a.826.826,0,0,0-.516.149.512.512,0,0,0-.194.432v.465a.533.533,0,0,0,.175.439.679.679,0,0,0,.445.142h.439a1.871,1.871,0,0,1,1.317.42,1.616,1.616,0,0,1,.452,1.246v.581A1.465,1.465,0,0,1,79.621,122.27Z"/><path class="cls-3" d="M83.953,122.245a1.726,1.726,0,0,1-.349-1.124v-3.939H82.378v-.969H83.6v-1.549h1.1v1.549h1.885v.969H84.7v4a.489.489,0,0,0,.142.4.677.677,0,0,0,.439.117h1.3v.968H84.96A1.225,1.225,0,0,1,83.953,122.245Z"/><path class="cls-3" d="M92.34,122.567a1.037,1.037,0,0,1-.342-.284.945.945,0,0,1-.788.387H90.061a2.131,2.131,0,0,1-1.427-.393,1.733,1.733,0,0,1-.445-1.35v-.259q0-2,1.885-2h1.6v-.645a.787.787,0,0,0-.245-.62,1.049,1.049,0,0,0-.723-.22h-2v-.969h1.873a2.391,2.391,0,0,1,1.659.492,2.044,2.044,0,0,1,.536,1.575v3.1a.323.323,0,0,0,.149.29.941.941,0,0,0,.5.1v.9h-.711A.814.814,0,0,1,92.34,122.567Zm-.768-1.046a.926.926,0,0,0,.1-.465v-1.42H90.061a.749.749,0,0,0-.774.775v.645a.557.557,0,0,0,.645.646h1.149C91.34,121.7,91.5,121.642,91.572,121.521Z"/><path class="cls-3" d="M98.6,122.27a2.248,2.248,0,0,1-1.44.4H95.24V121.7h2.053a.81.81,0,0,0,.529-.149.524.524,0,0,0,.181-.432v-.685q0-.581-.555-.581H96.97a1.983,1.983,0,0,1-1.349-.394,1.58,1.58,0,0,1-.446-1.246v-.374a1.481,1.481,0,0,1,.491-1.247,2.333,2.333,0,0,1,1.446-.381h1.73v.969H96.983a.829.829,0,0,0-.517.149.511.511,0,0,0-.193.432v.465a.533.533,0,0,0,.174.439.68.68,0,0,0,.445.142h.439a1.876,1.876,0,0,1,1.318.42,1.619,1.619,0,0,1,.451,1.246v.581A1.465,1.465,0,0,1,98.6,122.27Z"/><path class="cls-3" d="M110.116,122.67h-.53a2.415,2.415,0,0,1-1.666-.484,2.054,2.054,0,0,1-.529-1.582V118.28a2.041,2.041,0,0,1,.536-1.575,2.391,2.391,0,0,1,1.659-.492h1.5v-2.582h1.1v9.039h-1.034v-.3A1.75,1.75,0,0,1,110.116,122.67Zm.761-1.194a.705.705,0,0,0,.207-.484v-3.81h-1.627a1.047,1.047,0,0,0-.723.22.787.787,0,0,0-.246.62v2.841a.786.786,0,0,0,.246.619,1.052,1.052,0,0,0,.723.22h.788A.816.816,0,0,0,110.877,121.476Z"/><path class="cls-3" d="M114.377,122.186a2.054,2.054,0,0,1-.529-1.582V118.28a1.752,1.752,0,0,1,2.065-2.067h.607a1.8,1.8,0,0,1,1.389.511,2.124,2.124,0,0,1,.471,1.491v1.679h-3.435v.969a.789.789,0,0,0,.245.619,1.056,1.056,0,0,0,.723.22h2.054v.968h-1.924A2.413,2.413,0,0,1,114.377,122.186Zm2.931-4.229a.751.751,0,0,0-.774-.775h-.749a.838.838,0,0,0-.653.213.932.932,0,0,0-.187.627v.9h2.363Z"/><path class="cls-3" d="M130.8,124.433a2.542,2.542,0,0,1-1.634.433h-2.686V123.9h2.815a1.13,1.13,0,0,0,.7-.181.562.562,0,0,0,.233-.465v-.413a.558.558,0,0,0-.233-.471,1.153,1.153,0,0,0-.7-.174h-2.233v-1.782a1.447,1.447,0,0,1-.633-.672,2.673,2.673,0,0,1-.207-1.136v-.323a2.044,2.044,0,0,1,.536-1.575,2.391,2.391,0,0,1,1.659-.492h2.712v2.39a2.094,2.094,0,0,1-.529,1.517,1.865,1.865,0,0,1-1.408.548h-1.033v.556h1.007a2.542,2.542,0,0,1,1.634.433,1.6,1.6,0,0,1,.523,1.31v.156A1.6,1.6,0,0,1,130.8,124.433Zm-1-4.991a1.012,1.012,0,0,0,.233-.542v-1.718h-1.743a1.052,1.052,0,0,0-.724.22.787.787,0,0,0-.245.62v.839a.788.788,0,0,0,.245.62,1.057,1.057,0,0,0,.724.22h.9A.728.728,0,0,0,129.795,119.442Z"/><path class="cls-3" d="M133.359,122.186a2.054,2.054,0,0,1-.529-1.582V118.28a1.753,1.753,0,0,1,2.066-2.067h.607a1.8,1.8,0,0,1,1.388.511,2.124,2.124,0,0,1,.472,1.491v1.679h-3.435v.969a.786.786,0,0,0,.245.619,1.054,1.054,0,0,0,.723.22h2.053v.968h-1.924A2.413,2.413,0,0,1,133.359,122.186Zm2.932-4.229a.752.752,0,0,0-.775-.775h-.749a.836.836,0,0,0-.652.213.926.926,0,0,0-.187.627v.9h2.363Zm.826-4.52-1.575,1.744h-1.111l1.343-1.744Z"/><path class="cls-3" d="M140.1,116.213v.311a1.637,1.637,0,0,1,1.033-.311h.594a2.166,2.166,0,0,1,1.556.492,2.106,2.106,0,0,1,.51,1.575v4.39h-1.1v-4.648a.781.781,0,0,0-.839-.84H141a.813.813,0,0,0-.633.227.7.7,0,0,0-.207.483v4.778h-1.1v-6.457Z"/><path class="cls-3" d="M146.014,122.186a2.054,2.054,0,0,1-.529-1.582V118.28a1.752,1.752,0,0,1,2.066-2.067h.607a1.8,1.8,0,0,1,1.388.511,2.124,2.124,0,0,1,.471,1.491v1.679h-3.435v.969a.786.786,0,0,0,.246.619,1.052,1.052,0,0,0,.723.22H149.6v.968H147.68A2.413,2.413,0,0,1,146.014,122.186Zm2.932-4.229a.752.752,0,0,0-.775-.775h-.749a.838.838,0,0,0-.653.213.932.932,0,0,0-.187.627v.9h2.364Z"/><path class="cls-3" d="M152.832,121.7v-4.52h-.942v-.969h1.976v.349a1.58,1.58,0,0,1,1.033-.349h1.33v1.034h-1.46a.737.737,0,0,0-.619.264.948.948,0,0,0-.22.536V121.7h1.408v.968H151.89V121.7Z"/><path class="cls-3" d="M162.279,122.18a2.4,2.4,0,0,1-1.659.49h-.427a2.4,2.4,0,0,1-1.659-.49A2.045,2.045,0,0,1,158,120.6V118.28a2.044,2.044,0,0,1,.536-1.575,2.391,2.391,0,0,1,1.659-.492h.427a2.392,2.392,0,0,1,1.659.492,2.044,2.044,0,0,1,.536,1.575V120.6A2.045,2.045,0,0,1,162.279,122.18Zm-.807-4.778a1.052,1.052,0,0,0-.724-.22h-.684a1.049,1.049,0,0,0-.723.22.787.787,0,0,0-.245.62v2.841a.786.786,0,0,0,.245.619,1.054,1.054,0,0,0,.723.22h.684a1.057,1.057,0,0,0,.724-.22.789.789,0,0,0,.245-.619v-2.841A.79.79,0,0,0,161.472,117.4Z"/></g></g></svg>