<svg xmlns="http://www.w3.org/2000/svg" width="217.84" height="128.242" viewBox="0 0 217.84 128.242"><defs><style>.cls-1{fill:#f4efed;}.cls-2{fill:#ff3e71;}.cls-3{fill:#232123;}</style></defs><g id="Layer_2" data-name="Layer 2"><g id="Layer_1-2" data-name="Layer 1"><rect class="cls-1" width="183.928" height="44.66"/><rect class="cls-1" y="109.887" width="217.84" height="18.356"/><rect class="cls-2" y="53.474" width="206.845" height="48.186"/><path class="cls-3" d="M21.059,36.008a3.506,3.506,0,0,1-1.168-.97A3.222,3.222,0,0,1,17.2,36.36H13.28q-3.351,0-4.87-1.344T6.889,30.41v-.881q0-6.831,6.435-6.831h5.465v-2.2a2.7,2.7,0,0,0-.837-2.115,3.6,3.6,0,0,0-2.469-.749H8.652V14.324h6.39q3.836,0,5.664,1.675t1.829,5.377V31.953a1.1,1.1,0,0,0,.507.991,3.233,3.233,0,0,0,1.7.331V36.36H22.314A2.768,2.768,0,0,1,21.059,36.008Zm-2.623-3.571a3.167,3.167,0,0,0,.353-1.586V26H13.28a2.565,2.565,0,0,0-2.645,2.644v2.2a2.292,2.292,0,0,0,.529,1.675,2.29,2.29,0,0,0,1.675.529h3.923Q18.084,33.055,18.436,32.437Z"/><path class="cls-3" d="M33.156,33.055V17.63H29.939V14.324h6.743v1.191a5.383,5.383,0,0,1,3.526-1.191h4.539v3.525h-4.98a2.517,2.517,0,0,0-2.116.905,3.214,3.214,0,0,0-.749,1.828V33.055h4.8V36.36H29.939v-3.3Z"/><path class="cls-3" d="M54.222,34.708q-1.807-1.654-1.807-5.4V21.376q0-3.7,1.829-5.377t5.663-1.675h5.686V17.63H59.467A3.6,3.6,0,0,0,57,18.379a2.693,2.693,0,0,0-.837,2.115v9.7A2.692,2.692,0,0,0,57,32.306a3.593,3.593,0,0,0,2.469.749h6.126V36.36H59.907Q56.03,36.36,54.222,34.708Z"/><path class="cls-3" d="M76.3,5.51v9.7a5.831,5.831,0,0,1,3.3-.882h2.028q3.57,0,5.31,1.675t1.741,5.377V36.36H84.94V20.494a2.661,2.661,0,0,0-2.864-2.864H79.167a2.823,2.823,0,0,0-2.116.726,2.414,2.414,0,0,0-.749,1.566V36.36H72.556V5.51Z"/><path class="cls-3" d="M93.843,17.63V14.324h10.224V33.055h6.523V36.36H100.321V17.63ZM104.288,5.51V9.476H100.1V5.51Z"/><path class="cls-3" d="M114.732,14.324h4.055l5.156,19,5.025-19h3.922L126.543,36.36h-5.421Z"/><path class="cls-3" d="M151.775,34.685q-1.83,1.677-5.664,1.675h-1.454q-3.834,0-5.663-1.675t-1.829-5.377V21.376q0-3.7,1.829-5.377t5.663-1.675h1.454q3.834,0,5.664,1.675t1.828,5.377v7.932Q153.6,33.01,151.775,34.685ZM149.02,18.379a3.6,3.6,0,0,0-2.468-.749h-2.336a3.6,3.6,0,0,0-2.468.749,2.693,2.693,0,0,0-.837,2.115v9.7a2.692,2.692,0,0,0,.837,2.116,3.59,3.59,0,0,0,2.468.749h2.336a3.59,3.59,0,0,0,2.468-.749,2.692,2.692,0,0,0,.837-2.116v-9.7A2.693,2.693,0,0,0,149.02,18.379Z"/><path class="cls-3" d="M172,34.994a7.681,7.681,0,0,1-4.914,1.366h-6.567v-3.3h7.007a2.786,2.786,0,0,0,1.807-.507,1.8,1.8,0,0,0,.618-1.477V28.736q0-1.983-1.9-1.983h-1.63a6.783,6.783,0,0,1-4.606-1.345,5.4,5.4,0,0,1-1.52-4.253V19.877a5.053,5.053,0,0,1,1.674-4.253,7.952,7.952,0,0,1,4.936-1.3h5.906V17.63h-6.346a2.821,2.821,0,0,0-1.763.507,1.745,1.745,0,0,0-.661,1.476V21.2a1.82,1.82,0,0,0,.594,1.5,2.332,2.332,0,0,0,1.521.484h1.5a6.384,6.384,0,0,1,4.495,1.433,5.527,5.527,0,0,1,1.543,4.253v1.983A5,5,0,0,1,172,34.994Z"/><path class="cls-3" d="M16.938,91.6H15.131q-3.879,0-5.686-1.653t-1.806-5.4V76.613q0-3.7,1.829-5.377t5.663-1.675h5.112V60.747h3.746V91.6H20.463V90.584A6.008,6.008,0,0,1,16.938,91.6Zm2.6-4.078a2.411,2.411,0,0,0,.7-1.652v-13H14.69a3.6,3.6,0,0,0-2.468.749,2.689,2.689,0,0,0-.837,2.115v9.7a2.687,2.687,0,0,0,.837,2.115,3.59,3.59,0,0,0,2.468.749h2.688A2.784,2.784,0,0,0,19.538,87.52Z"/><path class="cls-3" d="M29.058,72.867V69.561H39.282V88.292h6.523V91.6H35.536V72.867ZM39.5,60.747v3.967H35.316V60.747Z"/><path class="cls-3" d="M65.923,97.613q-1.785,1.477-5.575,1.477H51.181V95.784h9.608a3.841,3.841,0,0,0,2.38-.616,1.925,1.925,0,0,0,.793-1.587v-1.41a1.909,1.909,0,0,0-.793-1.61,3.95,3.95,0,0,0-2.38-.594H53.164V83.885a4.947,4.947,0,0,1-2.159-2.291,9.156,9.156,0,0,1-.705-3.879v-1.1q0-3.7,1.828-5.377t5.664-1.675h9.255v8.154a7.149,7.149,0,0,1-1.807,5.178,6.367,6.367,0,0,1-4.8,1.873H56.911v1.895h3.437q3.789,0,5.575,1.477a5.471,5.471,0,0,1,1.785,4.473v.53A5.468,5.468,0,0,1,65.923,97.613ZM62.508,80.58a3.451,3.451,0,0,0,.793-1.852V72.867h-5.95a3.6,3.6,0,0,0-2.468.749,2.693,2.693,0,0,0-.837,2.115V78.6a2.69,2.69,0,0,0,.837,2.115,3.59,3.59,0,0,0,2.468.749h3.085A2.5,2.5,0,0,0,62.508,80.58Z"/><path class="cls-3" d="M72.247,72.867V69.561H82.472V88.292H89V91.6H78.726V72.867Zm10.445-12.12v3.967H78.506V60.747Z"/><path class="cls-3" d="M100.41,90.143a5.862,5.862,0,0,1-1.191-3.835V72.867H95.033V69.561h4.186V64.272h3.747v5.289H109.4v3.306h-6.434V86.529a1.675,1.675,0,0,0,.484,1.366,2.338,2.338,0,0,0,1.5.4H109.4V91.6h-5.553A4.184,4.184,0,0,1,100.41,90.143Z"/><path class="cls-3" d="M129.034,91.245a3.5,3.5,0,0,1-1.168-.97,3.223,3.223,0,0,1-2.689,1.323h-3.922q-3.351,0-4.87-1.344t-1.521-4.607v-.881q0-6.83,6.435-6.831h5.465v-2.2a2.7,2.7,0,0,0-.837-2.115,3.6,3.6,0,0,0-2.469-.749h-6.831V69.561h6.39q3.835,0,5.664,1.675t1.829,5.377V87.19a1.1,1.1,0,0,0,.507.992,3.242,3.242,0,0,0,1.7.331V91.6h-2.425A2.77,2.77,0,0,1,129.034,91.245Zm-2.623-3.57a3.17,3.17,0,0,0,.353-1.586V81.24h-5.509a2.565,2.565,0,0,0-2.645,2.645v2.2a1.9,1.9,0,0,0,2.2,2.2h3.923Q126.059,88.292,126.411,87.675Z"/><path class="cls-3" d="M144.194,90.54a4.411,4.411,0,0,1-1.124-3.35V64.053h-6.478V60.747h10.224V86.97a1.282,1.282,0,0,0,.353,1.013,1.806,1.806,0,0,0,1.19.309h5.862V91.6h-7.405A3.706,3.706,0,0,1,144.194,90.54Z"/><path class="cls-3" d="M161.052,89.945q-1.807-1.653-1.807-5.4V76.613q0-3.789,1.63-5.421t5.421-1.631h2.072a6.128,6.128,0,0,1,4.737,1.742,7.244,7.244,0,0,1,1.609,5.089v5.73H162.991v3.306a2.69,2.69,0,0,0,.837,2.115,3.59,3.59,0,0,0,2.468.749H173.3V91.6h-6.567Q162.858,91.6,161.052,89.945Zm10-14.433a2.562,2.562,0,0,0-2.644-2.645h-2.557a2.851,2.851,0,0,0-2.225.727,3.15,3.15,0,0,0-.639,2.137v3.085h8.065Z"/><path class="cls-3" d="M193.6,90.231a7.679,7.679,0,0,1-4.914,1.367h-6.567V88.292h7.007a2.791,2.791,0,0,0,1.808-.507,1.8,1.8,0,0,0,.617-1.477V83.974q0-1.985-1.9-1.984h-1.63a6.785,6.785,0,0,1-4.606-1.345,5.4,5.4,0,0,1-1.52-4.253V75.114a5.051,5.051,0,0,1,1.675-4.253,7.948,7.948,0,0,1,4.936-1.3h5.905v3.306h-6.346a2.823,2.823,0,0,0-1.763.507,1.746,1.746,0,0,0-.661,1.476v1.586a1.818,1.818,0,0,0,.595,1.5,2.324,2.324,0,0,0,1.52.485h1.5a6.382,6.382,0,0,1,4.495,1.432,5.527,5.527,0,0,1,1.543,4.253v1.984A5,5,0,0,1,193.6,90.231Z"/><path class="cls-3" d="M7.223,116.213v.31a1.637,1.637,0,0,1,1.033-.31h.465a2.418,2.418,0,0,1,1.666.484,2.057,2.057,0,0,1,.529,1.582V120.6a2.049,2.049,0,0,1-.536,1.577,2.4,2.4,0,0,1-1.659.49H7.288v2.195H6.19v-8.652Zm.271,1.2a.7.7,0,0,0-.206.483v3.81H8.85a1.049,1.049,0,0,0,.723-.22.783.783,0,0,0,.245-.619v-2.841a.789.789,0,0,0-.245-.62,1.054,1.054,0,0,0-.723-.219H8.127A.816.816,0,0,0,7.494,117.408Z"/><path class="cls-3" d="M16.411,122.566a1.006,1.006,0,0,1-.342-.284.943.943,0,0,1-.788.388H14.132a2.123,2.123,0,0,1-1.427-.394,1.73,1.73,0,0,1-.446-1.349v-.259q0-2,1.886-2h1.6v-.646a.793.793,0,0,0-.245-.62,1.057,1.057,0,0,0-.724-.219h-2v-.969h1.872a2.4,2.4,0,0,1,1.66.491,2.046,2.046,0,0,1,.535,1.575v3.1a.324.324,0,0,0,.149.29.956.956,0,0,0,.5.1v.9h-.71A.8.8,0,0,1,16.411,122.566Zm-.768-1.046a.935.935,0,0,0,.1-.464v-1.42H14.132a.748.748,0,0,0-.775.774v.646A.557.557,0,0,0,14,121.7h1.15Q15.539,121.7,15.643,121.52Z"/><path class="cls-3" d="M19.955,121.7v-4.519h-.942v-.969h1.975v.348a1.582,1.582,0,0,1,1.034-.348h1.33v1.033h-1.46a.741.741,0,0,0-.62.265.948.948,0,0,0-.219.536V121.7H22.46v.969H19.013V121.7Z"/><path class="cls-3" d="M29.065,122.566a1.012,1.012,0,0,1-.341-.284.944.944,0,0,1-.788.388H26.787a2.126,2.126,0,0,1-1.428-.394,1.734,1.734,0,0,1-.445-1.349v-.259q0-2,1.885-2h1.6v-.646a.789.789,0,0,0-.245-.62,1.052,1.052,0,0,0-.723-.219h-2v-.969H27.3a2.4,2.4,0,0,1,1.659.491,2.046,2.046,0,0,1,.536,1.575v3.1a.324.324,0,0,0,.149.29.956.956,0,0,0,.5.1v.9h-.71A.8.8,0,0,1,29.065,122.566ZM28.3,121.52a.924.924,0,0,0,.1-.464v-1.42H26.787a.748.748,0,0,0-.775.774v.646a.557.557,0,0,0,.645.645h1.15C28.065,121.7,28.229,121.641,28.3,121.52Z"/><path class="cls-3" d="M41.72,122.566a1.025,1.025,0,0,1-.342-.284.942.942,0,0,1-.788.388H39.441a2.125,2.125,0,0,1-1.427-.394,1.73,1.73,0,0,1-.445-1.349v-.259q0-2,1.885-2h1.6v-.646a.789.789,0,0,0-.245-.62,1.054,1.054,0,0,0-.723-.219h-2v-.969h1.873a2.4,2.4,0,0,1,1.659.491,2.046,2.046,0,0,1,.536,1.575v3.1a.324.324,0,0,0,.149.29.951.951,0,0,0,.5.1v.9h-.711A.8.8,0,0,1,41.72,122.566Zm-.768-1.046a.924.924,0,0,0,.1-.464v-1.42H39.441a.748.748,0,0,0-.774.774v.646a.556.556,0,0,0,.645.645h1.149C40.72,121.7,40.883,121.641,40.952,121.52Z"/><path class="cls-3" d="M45.11,122.185a2.053,2.053,0,0,1-.529-1.582v-2.324a2.046,2.046,0,0,1,.535-1.575,2.4,2.4,0,0,1,1.659-.491h1.666v.969H46.647a1.057,1.057,0,0,0-.724.219.793.793,0,0,0-.245.62v2.841a.786.786,0,0,0,.245.619,1.052,1.052,0,0,0,.724.22h1.794v.969H46.775A2.407,2.407,0,0,1,45.11,122.185Z"/><path class="cls-3" d="M52.315,122.244a1.722,1.722,0,0,1-.348-1.124v-3.938H50.74v-.969h1.227v-1.549h1.1v1.549H54.95v.969H53.064v4a.491.491,0,0,0,.143.4.68.68,0,0,0,.439.116h1.3v.969H53.323A1.229,1.229,0,0,1,52.315,122.244Z"/><path class="cls-3" d="M56.719,117.182v-.969h2.995V121.7h1.912v.969H58.617v-5.488Zm3.06-3.551v1.162H58.552v-1.162Z"/><path class="cls-3" d="M62.84,116.213h1.188l1.511,5.566,1.472-5.566H68.16L66.3,122.67H64.712Z"/><path class="cls-3" d="M69.374,117.182v-.969h3V121.7h1.911v.969H71.272v-5.488Zm3.061-3.551v1.162H71.208v-1.162Z"/><path class="cls-3" d="M79.62,122.269a2.248,2.248,0,0,1-1.44.4H76.256V121.7H78.31a.817.817,0,0,0,.529-.148.531.531,0,0,0,.181-.433v-.685c0-.386-.186-.581-.556-.581h-.477a1.988,1.988,0,0,1-1.35-.393,1.582,1.582,0,0,1-.445-1.246v-.374a1.481,1.481,0,0,1,.491-1.247,2.331,2.331,0,0,1,1.446-.381h1.73v.969H78a.827.827,0,0,0-.517.148.513.513,0,0,0-.193.433v.464a.535.535,0,0,0,.174.44.68.68,0,0,0,.445.141h.439a1.876,1.876,0,0,1,1.318.42,1.622,1.622,0,0,1,.451,1.246v.582A1.461,1.461,0,0,1,79.62,122.269Z"/><path class="cls-3" d="M83.953,122.244a1.717,1.717,0,0,1-.349-1.124v-3.938H82.377v-.969H83.6v-1.549h1.1v1.549h1.885v.969H84.7v4a.49.49,0,0,0,.142.4.682.682,0,0,0,.439.116h1.3v.969H84.96A1.226,1.226,0,0,1,83.953,122.244Z"/><path class="cls-3" d="M92.339,122.566a1.012,1.012,0,0,1-.341-.284.945.945,0,0,1-.789.388H90.061a2.126,2.126,0,0,1-1.428-.394,1.73,1.73,0,0,1-.445-1.349v-.259q0-2,1.885-2h1.6v-.646a.789.789,0,0,0-.245-.62,1.054,1.054,0,0,0-.723-.219h-2v-.969h1.872a2.4,2.4,0,0,1,1.659.491,2.046,2.046,0,0,1,.536,1.575v3.1a.324.324,0,0,0,.149.29.956.956,0,0,0,.5.1v.9h-.71A.8.8,0,0,1,92.339,122.566Zm-.768-1.046a.924.924,0,0,0,.1-.464v-1.42H90.061a.748.748,0,0,0-.775.774v.646a.556.556,0,0,0,.645.645h1.15Q91.468,121.7,91.571,121.52Z"/><path class="cls-3" d="M98.6,122.269a2.252,2.252,0,0,1-1.44.4H95.239V121.7h2.053a.816.816,0,0,0,.529-.148A.528.528,0,0,0,98,121.12v-.685c0-.386-.185-.581-.555-.581h-.478a1.985,1.985,0,0,1-1.349-.393,1.583,1.583,0,0,1-.446-1.246v-.374a1.481,1.481,0,0,1,.491-1.247,2.333,2.333,0,0,1,1.446-.381h1.73v.969H96.982a.831.831,0,0,0-.517.148.513.513,0,0,0-.193.433v.464a.535.535,0,0,0,.174.44.683.683,0,0,0,.446.141h.439a1.875,1.875,0,0,1,1.317.42,1.623,1.623,0,0,1,.452,1.246v.582A1.464,1.464,0,0,1,98.6,122.269Z"/><path class="cls-3" d="M110.115,122.67h-.53a2.41,2.41,0,0,1-1.666-.485,2.053,2.053,0,0,1-.529-1.582v-2.324a2.042,2.042,0,0,1,.536-1.575,2.4,2.4,0,0,1,1.659-.491h1.5v-2.582h1.1v9.039h-1.034v-.3A1.757,1.757,0,0,1,110.115,122.67Zm.761-1.2a.705.705,0,0,0,.207-.484v-3.809h-1.627a1.054,1.054,0,0,0-.723.219.79.79,0,0,0-.246.62v2.841a.784.784,0,0,0,.246.619,1.049,1.049,0,0,0,.723.22h.788A.813.813,0,0,0,110.876,121.475Z"/><path class="cls-3" d="M114.376,122.185a2.049,2.049,0,0,1-.53-1.582v-2.324a1.752,1.752,0,0,1,2.066-2.066h.607a1.8,1.8,0,0,1,1.388.511,2.116,2.116,0,0,1,.472,1.491v1.678h-3.435v.969a.783.783,0,0,0,.245.619,1.051,1.051,0,0,0,.723.22h2.053v.969h-1.923A2.408,2.408,0,0,1,114.376,122.185Zm2.931-4.228a.751.751,0,0,0-.775-.775h-.749a.839.839,0,0,0-.652.212.926.926,0,0,0-.187.627v.9h2.363Z"/><path class="cls-3" d="M126.812,116.213v.3a1.161,1.161,0,0,1,.8-.3h.077a1.478,1.478,0,0,1,1.279.516,1.387,1.387,0,0,1,1.123-.516h.078a1.525,1.525,0,0,1,1.162.4,2.084,2.084,0,0,1,.375,1.421v4.636h-1.034v-4.649a1.727,1.727,0,0,0-.109-.736c-.074-.138-.239-.207-.5-.207h-.077a.562.562,0,0,0-.536.265,1.281,1.281,0,0,0-.161.588v4.739h-1.033v-4.649a1.488,1.488,0,0,0-.13-.743.51.51,0,0,0-.464-.2h-.078a.609.609,0,0,0-.542.227.946.946,0,0,0-.168.509v4.856h-1.033v-6.457Z"/><path class="cls-3" d="M135.321,122.67h-.439a2.171,2.171,0,0,1-1.556-.49,2.107,2.107,0,0,1-.51-1.577v-4.39h1.1v4.649a.78.78,0,0,0,.839.839h.7a.819.819,0,0,0,.614-.206.775.775,0,0,0,.226-.465v-4.817h1.1v6.457h-1.033v-.3A1.76,1.76,0,0,1,135.321,122.67Z"/><path class="cls-3" d="M141.861,123.787a.356.356,0,0,0,.123-.277v-6.328h-1.9v-.969h3v7.231a1.421,1.421,0,0,1-.374,1.04,1.3,1.3,0,0,1-.969.381h-2.028V123.9h1.821A.473.473,0,0,0,141.861,123.787Zm1.272-10.156v1.162h-1.226v-1.162Z"/><path class="cls-3" d="M146.013,122.185a2.053,2.053,0,0,1-.53-1.582v-2.324a1.752,1.752,0,0,1,2.066-2.066h.607a1.8,1.8,0,0,1,1.388.511,2.116,2.116,0,0,1,.472,1.491v1.678h-3.435v.969a.786.786,0,0,0,.245.619,1.051,1.051,0,0,0,.723.22H149.6v.969h-1.924A2.408,2.408,0,0,1,146.013,122.185Zm2.931-4.228a.749.749,0,0,0-.775-.775h-.749a.839.839,0,0,0-.652.212.932.932,0,0,0-.187.627v.9h2.363Z"/><path class="cls-3" d="M152.831,121.7v-4.519h-.942v-.969h1.975v.348a1.581,1.581,0,0,1,1.033-.348h1.331v1.033h-1.46a.741.741,0,0,0-.62.265.948.948,0,0,0-.219.536V121.7h1.407v.969h-3.447V121.7Z"/><path class="cls-3" d="M158.668,122.185a2.049,2.049,0,0,1-.53-1.582v-2.324a1.752,1.752,0,0,1,2.066-2.066h.607a1.8,1.8,0,0,1,1.388.511,2.116,2.116,0,0,1,.472,1.491v1.678h-3.435v.969a.783.783,0,0,0,.245.619,1.051,1.051,0,0,0,.723.22h2.053v.969h-1.923A2.408,2.408,0,0,1,158.668,122.185Zm2.931-4.228a.751.751,0,0,0-.775-.775h-.749a.839.839,0,0,0-.652.212.926.926,0,0,0-.187.627v.9H161.6Z"/><path class="cls-3" d="M168.2,122.269a2.248,2.248,0,0,1-1.44.4H164.84V121.7h2.054a.817.817,0,0,0,.529-.148.531.531,0,0,0,.181-.433v-.685c0-.386-.186-.581-.556-.581h-.477a1.988,1.988,0,0,1-1.35-.393,1.582,1.582,0,0,1-.445-1.246v-.374a1.481,1.481,0,0,1,.491-1.247,2.331,2.331,0,0,1,1.446-.381h1.73v.969h-1.859a.827.827,0,0,0-.517.148.513.513,0,0,0-.193.433v.464a.535.535,0,0,0,.174.44.68.68,0,0,0,.445.141h.439a1.876,1.876,0,0,1,1.318.42,1.622,1.622,0,0,1,.451,1.246v.582A1.461,1.461,0,0,1,168.2,122.269Z"/><path class="cls-3" d="M178.7,123.78a.715.715,0,0,0,.232-.4l.181-.71h-.258l-2.131-6.457h1.188l1.614,5.411,1.408-5.411h1.123l-2,7.154a2.8,2.8,0,0,1-.413.982,1.139,1.139,0,0,1-.549.419,2.608,2.608,0,0,1-.781.1h-.62V123.9h.542A.766.766,0,0,0,178.7,123.78Z"/><path class="cls-3" d="M191.17,113.631v8.057h2.88v.982h-4v-9.039Z"/><path class="cls-3" d="M196.7,122.121a2.12,2.12,0,0,1-.6-1.647v-4.648a2.119,2.119,0,0,1,.6-1.646,2.459,2.459,0,0,1,1.723-.549h1.821v.981H198.3a1.077,1.077,0,0,0-.775.284.912.912,0,0,0-.3.684v5.14a.91.91,0,0,0,.3.684,1.073,1.073,0,0,0,.775.284h1.266v-2.8H198.44v-.969h2.2v4.752h-2.209A2.464,2.464,0,0,1,196.7,122.121Z"/><path class="cls-3" d="M206.582,122.205a2.472,2.472,0,0,1-1.685.465h-2.583v-9.039h2.428a2.529,2.529,0,0,1,1.685.465,1.956,1.956,0,0,1,.536,1.549v.736a1.716,1.716,0,0,1-.711,1.5,1.665,1.665,0,0,1,.84,1.589v1.162A2.054,2.054,0,0,1,206.582,122.205Zm-.969-7.387a1,1,0,0,0-.716-.219h-1.459v2.854H204.9a.932.932,0,0,0,.671-.259.9.9,0,0,0,.271-.683v-.982A.958.958,0,0,0,205.613,114.818Zm.1,3.855a.94.94,0,0,0-.684-.251h-1.588V121.7h1.575a1,1,0,0,0,.723-.226.96.96,0,0,0,.232-.716v-1.408A.9.9,0,0,0,205.71,118.673Z"/><path class="cls-3" d="M210.462,122.67v-8.058h-2.053v-.981h5.23v.981h-2.053v8.058Z"/></g></g></svg>