<svg xmlns="http://www.w3.org/2000/svg" width="10.762" height="23.14" viewBox="0 0 10.762 23.14"><defs><style>.cls-1{fill:#f4efed;}</style></defs><g id="Layer_2" data-name="Layer 2"><g id="Layer_1-2" data-name="Layer 1"><path class="cls-1" d="M0,7.61v4H2.4V23.14H7.159V11.6c.972,0,1.884-.012,2.8.007.322.007.429-.1.44-.418.017-.462.1-.922.146-1.383.074-.716.143-1.432.221-2.211H7.143c0-.631,0-1.2,0-1.775,0-.2-.006-.4.011-.6.069-.842.418-1.176,1.273-1.21C8.768,3.991,9.109,4,9.45,4h1.278V.006c-1.074,0-2.123-.018-3.171.007A10.776,10.776,0,0,0,5.945.174,3.9,3.9,0,0,0,2.483,3.9c-.1,1.06-.073,2.131-.1,3.2,0,.164,0,.327,0,.516Z"/></g></g></svg>