<svg xmlns="http://www.w3.org/2000/svg" width="25.118" height="18.899" viewBox="0 0 25.118 18.899"><defs><style>.cls-1{fill:#f4efed;}</style></defs><g id="Layer_2" data-name="Layer 2"><g id="Layer_1-2" data-name="Layer 1"><path class="cls-1" d="M25.111.909a.908.908,0,0,0-.062-.323l0-.007c0-.01-.012-.018-.016-.028a.945.945,0,0,0-.166-.245.842.842,0,0,0-.07-.064.941.941,0,0,0-.2-.133.9.9,0,0,0-.088-.043A.932.932,0,0,0,24.178,0H.94A.932.932,0,0,0,.611.066.913.913,0,0,0,.522.109a.96.96,0,0,0-.2.133.842.842,0,0,0-.07.064A.945.945,0,0,0,.089.551c0,.01-.012.018-.016.028l0,.007A.932.932,0,0,0,.006.909C.006.92,0,.929,0,.94V17.959a.94.94,0,0,0,.94.94H24.178a.94.94,0,0,0,.94-.94V.94C25.118.929,25.112.92,25.111.909ZM9.1,10.187l2.806,2.73a.939.939,0,0,0,1.312,0l2.808-2.731L23,17.02H2.121ZM1.88,14.626V3.166l5.869,5.71Zm15.488-5.75,5.87-5.71v11.46Zm4.5-7-9.306,9.053L3.254,1.88Z"/></g></g></svg>