<svg xmlns="http://www.w3.org/2000/svg" width="24.171" height="19.757" viewBox="0 0 24.171 19.757"><defs><style>.cls-1{fill:#f4efed;}</style></defs><g id="Layer_2" data-name="Layer 2"><g id="Layer_1-2" data-name="Layer 1"><path class="cls-1" d="M23.5.53c-.882.318-1.743.624-2.6.939a.735.735,0,0,1-.829-.194,4.974,4.974,0,0,0-8.23,4.474,2.919,2.919,0,0,1,0,.387A14.356,14.356,0,0,1,1.575.908,5.136,5.136,0,0,0,3.053,7.553l-.072.092-2.1-.586A5.306,5.306,0,0,0,4.751,12.01H2.638a5.14,5.14,0,0,0,4.651,3.471A10.239,10.239,0,0,1,0,17.558c.194.127.265.178.339.221A13.906,13.906,0,0,0,6.731,19.73a13.528,13.528,0,0,0,7.746-1.7C19.282,15.216,21.6,10.919,21.746,5.4a.886.886,0,0,1,.37-.778,8.949,8.949,0,0,0,2.055-2.215c-.485.161-.9.318-1.32.432s-.865.188-1.3.279A5.762,5.762,0,0,0,23.5.53Z"/></g></g></svg>