<svg xmlns="http://www.w3.org/2000/svg" width="285.675" height="33.363" viewBox="0 0 285.675 33.363"><defs><style>.cls-1{fill:#232123;}.cls-2{fill:#f4efed;}.cls-3{fill:#ff3e71;}</style></defs><g id="Layer_2" data-name="Layer 2"><g id="Layer_1-2" data-name="Layer 1"><rect class="cls-1" width="285.675" height="33.363"/><path class="cls-2" d="M17.434,25.818a2.623,2.623,0,0,1-.873-.724,2.4,2.4,0,0,1-2.008.988H11.622a5.41,5.41,0,0,1-3.637-1,4.412,4.412,0,0,1-1.136-3.44v-.658q0-5.1,4.807-5.1h4.083V14.229a2.011,2.011,0,0,0-.626-1.58,2.688,2.688,0,0,0-1.844-.56h-5.1V9.62H12.94a6.109,6.109,0,0,1,4.23,1.251,5.216,5.216,0,0,1,1.366,4.017v7.9a.824.824,0,0,0,.379.741,2.418,2.418,0,0,0,1.268.247v2.3H18.372A2.062,2.062,0,0,1,17.434,25.818Zm-1.959-2.667a2.373,2.373,0,0,0,.264-1.185V18.345H11.622A1.914,1.914,0,0,0,9.647,20.32v1.646a1.711,1.711,0,0,0,.395,1.251,1.708,1.708,0,0,0,1.251.395h2.931Q15.211,23.612,15.475,23.151Z"/><path class="cls-2" d="M26.47,23.612V12.089h-2.4V9.62h5.038v.889a4.018,4.018,0,0,1,2.634-.889h3.39v2.634h-3.72a1.883,1.883,0,0,0-1.581.675,2.4,2.4,0,0,0-.559,1.366v9.317h3.589v2.47H24.067v-2.47Z"/><path class="cls-2" d="M42.208,24.847a5.24,5.24,0,0,1-1.349-4.033V14.888a5.212,5.212,0,0,1,1.366-4.017,6.107,6.107,0,0,1,4.23-1.251H50.7v2.469H46.126a2.683,2.683,0,0,0-1.843.56,2.011,2.011,0,0,0-.626,1.58v7.243a2.011,2.011,0,0,0,.626,1.581,2.683,2.683,0,0,0,1.843.559H50.7v2.47H46.455A6.156,6.156,0,0,1,42.208,24.847Z"/><path class="cls-2" d="M58.7,3.035v7.243a4.359,4.359,0,0,1,2.469-.658h1.515a5.538,5.538,0,0,1,3.968,1.251,5.375,5.375,0,0,1,1.3,4.017V26.082h-2.8V14.229a1.99,1.99,0,0,0-2.141-2.14H60.842a2.107,2.107,0,0,0-1.58.543A1.8,1.8,0,0,0,58.7,13.8V26.082H55.9V3.035Z"/><path class="cls-2" d="M71.806,12.089V9.62h7.639V23.612h4.872v2.47H76.646V12.089Zm7.8-9.054V6H76.481V3.035Z"/><path class="cls-2" d="M87.411,9.62H90.44l3.852,14.19L98.045,9.62h2.931L96.235,26.082h-4.05Z"/><path class="cls-2" d="M115.083,24.831a6.107,6.107,0,0,1-4.23,1.251h-1.086a6.115,6.115,0,0,1-4.232-1.251,5.212,5.212,0,0,1-1.366-4.017V14.888a5.212,5.212,0,0,1,1.366-4.017,6.115,6.115,0,0,1,4.232-1.251h1.086a6.107,6.107,0,0,1,4.23,1.251,5.212,5.212,0,0,1,1.367,4.017v5.926A5.212,5.212,0,0,1,115.083,24.831Zm-2.057-12.182a2.686,2.686,0,0,0-1.844-.56h-1.745a2.686,2.686,0,0,0-1.844.56,2.01,2.01,0,0,0-.625,1.58v7.243a2.011,2.011,0,0,0,.625,1.581,2.686,2.686,0,0,0,1.844.559h1.745a2.686,2.686,0,0,0,1.844-.559,2.011,2.011,0,0,0,.626-1.581V14.229A2.011,2.011,0,0,0,113.026,12.649Z"/><path class="cls-2" d="M130.2,25.061a5.734,5.734,0,0,1-3.671,1.021h-4.906v-2.47h5.235a2.085,2.085,0,0,0,1.35-.378,1.345,1.345,0,0,0,.461-1.1V20.386q0-1.482-1.416-1.482H126.03a5.07,5.07,0,0,1-3.441-1,4.034,4.034,0,0,1-1.136-3.177v-.955a3.777,3.777,0,0,1,1.251-3.177,5.941,5.941,0,0,1,3.688-.971H130.8v2.469h-4.741a2.111,2.111,0,0,0-1.317.379,1.3,1.3,0,0,0-.494,1.1v1.185a1.359,1.359,0,0,0,.445,1.119,1.732,1.732,0,0,0,1.135.362h1.119a4.765,4.765,0,0,1,3.359,1.071,4.126,4.126,0,0,1,1.152,3.176v1.482A3.738,3.738,0,0,1,130.2,25.061Z"/><path class="cls-3" d="M143.414,26.082h-1.35a6.155,6.155,0,0,1-4.247-1.235,5.237,5.237,0,0,1-1.35-4.033V14.888a5.212,5.212,0,0,1,1.366-4.017,6.11,6.11,0,0,1,4.231-1.251h3.819V3.035h2.8V26.082h-2.634v-.758A4.482,4.482,0,0,1,143.414,26.082Zm1.943-3.046a1.807,1.807,0,0,0,.526-1.235V12.089h-4.148a2.684,2.684,0,0,0-1.844.56,2.01,2.01,0,0,0-.625,1.58v7.243a2.011,2.011,0,0,0,.625,1.581,2.684,2.684,0,0,0,1.844.559h2.008A2.082,2.082,0,0,0,145.357,23.036Z"/><path class="cls-3" d="M152.467,12.089V9.62h7.639V23.612h4.872v2.47h-7.671V12.089Zm7.8-9.054V6h-3.128V3.035Z"/><path class="cls-3" d="M180.008,30.576a6.474,6.474,0,0,1-4.165,1.1H169V29.21h7.177a2.87,2.87,0,0,0,1.778-.461,1.439,1.439,0,0,0,.593-1.186V26.51a1.424,1.424,0,0,0-.593-1.2,2.95,2.95,0,0,0-1.778-.445h-5.695V20.32a3.682,3.682,0,0,1-1.613-1.712,6.822,6.822,0,0,1-.528-2.9v-.823a5.212,5.212,0,0,1,1.367-4.017,6.11,6.11,0,0,1,4.231-1.251h6.914v6.091a5.333,5.333,0,0,1-1.351,3.868,4.755,4.755,0,0,1-3.588,1.4h-2.634v1.415h2.568a6.474,6.474,0,0,1,4.165,1.1,4.087,4.087,0,0,1,1.333,3.342v.4A4.088,4.088,0,0,1,180.008,30.576Zm-2.552-12.725a2.572,2.572,0,0,0,.593-1.383V12.089h-4.444a2.683,2.683,0,0,0-1.844.56,2.007,2.007,0,0,0-.626,1.58v2.14a2,2,0,0,0,.626,1.58,2.678,2.678,0,0,0,1.844.56h2.3A1.863,1.863,0,0,0,177.456,17.851Z"/><path class="cls-3" d="M184.732,12.089V9.62h7.638V23.612h4.872v2.47h-7.67V12.089Zm7.8-9.054V6h-3.127V3.035Z"/><path class="cls-3" d="M205.77,25a4.384,4.384,0,0,1-.889-2.864V12.089h-3.128V9.62h3.128V5.669h2.8V9.62h4.807v2.469H207.68V22.3a1.25,1.25,0,0,0,.362,1.02,1.747,1.747,0,0,0,1.119.3h3.326v2.47h-4.149A3.129,3.129,0,0,1,205.77,25Z"/><path class="cls-3" d="M227.154,25.818a2.623,2.623,0,0,1-.873-.724,2.4,2.4,0,0,1-2.008.988h-2.931a5.415,5.415,0,0,1-3.638-1,4.415,4.415,0,0,1-1.135-3.44v-.658q0-5.1,4.806-5.1h4.083V14.229a2.011,2.011,0,0,0-.626-1.58,2.685,2.685,0,0,0-1.843-.56h-5.1V9.62h4.774a6.11,6.11,0,0,1,4.231,1.251,5.216,5.216,0,0,1,1.366,4.017v7.9a.824.824,0,0,0,.379.741,2.418,2.418,0,0,0,1.268.247v2.3h-1.811A2.059,2.059,0,0,1,227.154,25.818ZM225.2,23.151a2.385,2.385,0,0,0,.263-1.185V18.345h-4.116a1.915,1.915,0,0,0-1.976,1.975v1.646a1.423,1.423,0,0,0,1.647,1.646h2.931Q224.931,23.612,225.2,23.151Z"/><path class="cls-3" d="M238.48,25.292a3.292,3.292,0,0,1-.84-2.5V5.5H232.8V3.035h7.639v19.59a.96.96,0,0,0,.262.757,1.351,1.351,0,0,0,.89.23h4.378v2.47h-5.53A2.769,2.769,0,0,1,238.48,25.292Z"/><path class="cls-3" d="M251.072,24.847a5.237,5.237,0,0,1-1.35-4.033V14.888a5.585,5.585,0,0,1,1.218-4.05,5.585,5.585,0,0,1,4.05-1.218h1.547a4.58,4.58,0,0,1,3.539,1.3,5.414,5.414,0,0,1,1.2,3.8V19h-8.758v2.469a2.011,2.011,0,0,0,.625,1.581,2.686,2.686,0,0,0,1.844.559h5.235v2.47h-4.906A6.155,6.155,0,0,1,251.072,24.847Zm7.473-10.782a1.914,1.914,0,0,0-1.974-1.976H254.66a2.129,2.129,0,0,0-1.662.543,2.356,2.356,0,0,0-.477,1.6v2.3h6.024Z"/><path class="cls-3" d="M275.386,25.061a5.732,5.732,0,0,1-3.671,1.021h-4.9v-2.47h5.234a2.09,2.09,0,0,0,1.351-.378,1.348,1.348,0,0,0,.461-1.1V20.386q0-1.482-1.416-1.482h-1.219a5.067,5.067,0,0,1-3.44-1,4.034,4.034,0,0,1-1.136-3.177v-.955a3.777,3.777,0,0,1,1.251-3.177,5.938,5.938,0,0,1,3.687-.971H276v2.469h-4.741a2.108,2.108,0,0,0-1.316.379,1.3,1.3,0,0,0-.494,1.1v1.185a1.358,1.358,0,0,0,.444,1.119,1.736,1.736,0,0,0,1.136.362h1.119a4.76,4.76,0,0,1,3.358,1.071,4.123,4.123,0,0,1,1.153,3.176v1.482A3.736,3.736,0,0,1,275.386,25.061Z"/></g></g></svg>